# xmcd
#
# Track frame offsets:
#	182
#	24250
#	36775
#	53150
#	67227
#	82722
#	95697
#	118582
#	131342
#	144745
#	159902
#	177210
#
# Disc length: 2531 seconds
#
# Revision: 0
# Processed by: cddbd v1.4PL0 Copyright (c) Steve Scherf et al.
# Submitted via: dBpowerAMP V4.0
#
DISCID=9709e10c
DTITLE=Jimmy James and the vagabonds - Jimmy James and the vagabonds
DYEAR=1995
DGENRE=Soul
TTITLE0=I'll go where your music takes me
TTITLE1=You don't stand a chance (if you cant dance)
TTITLE2=Now is the time
TTITLE3=Do the funky conga
TTITLE4=Never had this dream before
TTITLE5=Hey girl
TTITLE6=I am somebody
TTITLE7=Dancing to the music of love
TTITLE8=If you think that funk is junk you're drunk
TTITLE9=Till I cant take it anymore
TTITLE10=I cant stop my feet from dancing
TTITLE11=Red Red Wine
EXTD=
EXTT0=
EXTT1=
EXTT2=
EXTT3=
EXTT4=
EXTT5=
EXTT6=
EXTT7=
EXTT8=
EXTT9=
EXTT10=
EXTT11=
PLAYORDER=
